<svg aria-hidden="true" style="position: absolute; width: 0; height: 0; overflow: hidden;" version="1.1" xmlns="http://www.w3.org/2000/svg" xmlns:xlink="http://www.w3.org/1999/xlink">
<defs>
	<symbol id="bi-download" viewBox="0 0 16 16">
		<path fill-rule="evenodd" d="M.5 8a.5.5 0 0 1 .5.5V12a1 1 0 0 0 1 1h12a1 1 0 0 0 1-1V8.5a.5.5 0 0 1 1 0V12a2 2 0 0 1-2 2H2a2 2 0 0 1-2-2V8.5A.5.5 0 0 1 .5 8z"/>
		<path fill-rule="evenodd" d="M5 7.5a.5.5 0 0 1 .707 0L8 9.793 10.293 7.5a.5.5 0 1 1 .707.707l-2.646 2.647a.5.5 0 0 1-.708 0L5 8.207A.5.5 0 0 1 5 7.5z"/>
		<path fill-rule="evenodd" d="M8 1a.5.5 0 0 1 .5.5v8a.5.5 0 0 1-1 0v-8A.5.5 0 0 1 8 1z"/>		
	</symbol>
	<symbol id="bi-code-slash" viewBox="0 0 16 16">
		<path fill-rule="evenodd" d="M4.854 4.146a.5.5 0 0 1 0 .708L1.707 8l3.147 3.146a.5.5 0 0 1-.708.708l-3.5-3.5a.5.5 0 0 1 0-.708l3.5-3.5a.5.5 0 0 1 .708 0zm6.292 0a.5.5 0 0 0 0 .708L14.293 8l-3.147 3.146a.5.5 0 0 0 .708.708l3.5-3.5a.5.5 0 0 0 0-.708l-3.5-3.5a.5.5 0 0 0-.708 0zm-.999-3.124a.5.5 0 0 1 .33.625l-4 13a.5.5 0 0 1-.955-.294l4-13a.5.5 0 0 1 .625-.33z"/>
	</symbol>
	<symbol id="bi-people-fill" viewBox="0 0 16 16">
		<path fill-rule="evenodd" d="M7 14s-1 0-1-1 1-4 5-4 5 3 5 4-1 1-1 1H7zm4-6a3 3 0 1 0 0-6 3 3 0 0 0 0 6zm-5.784 6A2.238 2.238 0 0 1 5 13c0-1.355.68-2.75 1.936-3.72A6.325 6.325 0 0 0 5 9c-4 0-5 3-5 4s1 1 1 1h4.216zM4.5 8a2.5 2.5 0 1 0 0-5 2.5 2.5 0 0 0 0 5z"/>
	</symbol>

	<!-- Social Networks -->
	<symbol id="icon-sm-1" viewBox="0 0 16 28">
		<path d="M14.984 0.187v4.125h-2.453c-1.922 0-2.281 0.922-2.281 2.25v2.953h4.578l-0.609 4.625h-3.969v11.859h-4.781v-11.859h-3.984v-4.625h3.984v-3.406c0-3.953 2.422-6.109 5.953-6.109 1.687 0 3.141 0.125 3.563 0.187z"></path>
	</symbol>
	<symbol id="icon-sm-2" viewBox="0 0 31 28">
		<path d="M29.953 8.125c0.234 0.641-0.5 2.141-2.344 4.594-3.031 4.031-3.359 3.656-0.859 5.984 2.406 2.234 2.906 3.313 2.984 3.453 0 0 1 1.75-1.109 1.766l-4 0.063c-0.859 0.172-2-0.609-2-0.609-1.5-1.031-2.906-3.703-4-3.359 0 0-1.125 0.359-1.094 2.766 0.016 0.516-0.234 0.797-0.234 0.797s-0.281 0.297-0.828 0.344h-1.797c-3.953 0.25-7.438-3.391-7.438-3.391s-3.813-3.938-7.156-11.797c-0.219-0.516 0.016-0.766 0.016-0.766s0.234-0.297 0.891-0.297l4.281-0.031c0.406 0.063 0.688 0.281 0.688 0.281s0.25 0.172 0.375 0.5c0.703 1.75 1.609 3.344 1.609 3.344 1.563 3.219 2.625 3.766 3.234 3.437 0 0 0.797-0.484 0.625-4.375-0.063-1.406-0.453-2.047-0.453-2.047-0.359-0.484-1.031-0.625-1.328-0.672-0.234-0.031 0.156-0.594 0.672-0.844 0.766-0.375 2.125-0.391 3.734-0.375 1.266 0.016 1.625 0.094 2.109 0.203 1.484 0.359 0.984 1.734 0.984 5.047 0 1.062-0.203 2.547 0.562 3.031 0.328 0.219 1.141 0.031 3.141-3.375 0 0 0.938-1.625 1.672-3.516 0.125-0.344 0.391-0.484 0.391-0.484s0.25-0.141 0.594-0.094l4.5-0.031c1.359-0.172 1.578 0.453 1.578 0.453z"></path>
	</symbol>
	<symbol id="icon-sm-3" viewBox="0 0 20 28">
		<path d="M10 14.172c-3.906 0-7.094-3.172-7.094-7.078 0-3.922 3.187-7.094 7.094-7.094s7.094 3.172 7.094 7.094c0 3.906-3.187 7.078-7.094 7.078zM10 3.594c-1.922 0-3.484 1.563-3.484 3.5 0 1.922 1.563 3.484 3.484 3.484s3.484-1.563 3.484-3.484c0-1.937-1.563-3.5-3.484-3.5zM18.172 15.031c0.688 1.406-0.094 2.078-1.875 3.234-1.5 0.953-3.563 1.328-4.922 1.469l1.141 1.125 4.172 4.172c0.625 0.641 0.625 1.672 0 2.297l-0.187 0.203c-0.641 0.625-1.672 0.625-2.312 0-1.047-1.062-2.578-2.594-4.172-4.188l-4.172 4.188c-0.641 0.625-1.672 0.625-2.297 0l-0.187-0.203c-0.641-0.625-0.641-1.656 0-2.297 1.062-1.062 2.578-2.594 4.172-4.172l1.125-1.125c-1.344-0.141-3.437-0.5-4.953-1.469-1.781-1.156-2.562-1.828-1.875-3.234 0.406-0.797 1.516-1.469 2.984-0.313 0 0 1.984 1.578 5.187 1.578s5.187-1.578 5.187-1.578c1.469-1.156 2.578-0.484 2.984 0.313z"></path>
	</symbol>

</defs>
</svg>