<svg aria-hidden="true" style="position: absolute; width: 0; height: 0; overflow: hidden;" version="1.1" xmlns="http://www.w3.org/2000/svg" xmlns:xlink="http://www.w3.org/1999/xlink">
<defs>
	<symbol id="bi-download" viewBox="0 0 16 16">
		<path fill-rule="evenodd" d="M.5 8a.5.5 0 0 1 .5.5V12a1 1 0 0 0 1 1h12a1 1 0 0 0 1-1V8.5a.5.5 0 0 1 1 0V12a2 2 0 0 1-2 2H2a2 2 0 0 1-2-2V8.5A.5.5 0 0 1 .5 8z"/>
		<path fill-rule="evenodd" d="M5 7.5a.5.5 0 0 1 .707 0L8 9.793 10.293 7.5a.5.5 0 1 1 .707.707l-2.646 2.647a.5.5 0 0 1-.708 0L5 8.207A.5.5 0 0 1 5 7.5z"/>
		<path fill-rule="evenodd" d="M8 1a.5.5 0 0 1 .5.5v8a.5.5 0 0 1-1 0v-8A.5.5 0 0 1 8 1z"/>		
	</symbol>
	<symbol id="bi-code-slash" viewBox="0 0 16 16">
		<path fill-rule="evenodd" d="M4.854 4.146a.5.5 0 0 1 0 .708L1.707 8l3.147 3.146a.5.5 0 0 1-.708.708l-3.5-3.5a.5.5 0 0 1 0-.708l3.5-3.5a.5.5 0 0 1 .708 0zm6.292 0a.5.5 0 0 0 0 .708L14.293 8l-3.147 3.146a.5.5 0 0 0 .708.708l3.5-3.5a.5.5 0 0 0 0-.708l-3.5-3.5a.5.5 0 0 0-.708 0zm-.999-3.124a.5.5 0 0 1 .33.625l-4 13a.5.5 0 0 1-.955-.294l4-13a.5.5 0 0 1 .625-.33z"/>
	</symbol>
	<symbol id="bi-people-fill" viewBox="0 0 16 16">
		<path fill-rule="evenodd" d="M7 14s-1 0-1-1 1-4 5-4 5 3 5 4-1 1-1 1H7zm4-6a3 3 0 1 0 0-6 3 3 0 0 0 0 6zm-5.784 6A2.238 2.238 0 0 1 5 13c0-1.355.68-2.75 1.936-3.72A6.325 6.325 0 0 0 5 9c-4 0-5 3-5 4s1 1 1 1h4.216zM4.5 8a2.5 2.5 0 1 0 0-5 2.5 2.5 0 0 0 0 5z"/>
	</symbol>
</defs>
</svg>